<svg xmlns="http://www.w3.org/2000/svg" xmlns:xlink="http://www.w3.org/1999/xlink" width="442" zoomAndPan="magnify" viewBox="0 0 331.5 210.749994" height="281" preserveAspectRatio="xMidYMid meet" version="1.0"><defs><filter x="0%" y="0%" width="100%" height="100%" id="91e0b79e6d"><feColorMatrix values="0 0 0 0 1 0 0 0 0 1 0 0 0 0 1 0 0 0 1 0" color-interpolation-filters="sRGB"/></filter><clipPath id="672da48ae8"><path d="M 4.09375 5.875 L 327 5.875 L 327 204.628906 L 4.09375 204.628906 Z M 4.09375 5.875 " clip-rule="nonzero"/></clipPath><clipPath id="7755cc3e59"><path d="M 16.078125 5.875 L 314.921875 5.875 C 321.539062 5.875 326.90625 11.238281 326.90625 17.855469 L 326.90625 192.644531 C 326.90625 199.261719 321.539062 204.628906 314.921875 204.628906 L 16.078125 204.628906 C 9.460938 204.628906 4.09375 199.261719 4.09375 192.644531 L 4.09375 17.855469 C 4.09375 11.238281 9.460938 5.875 16.078125 5.875 Z M 16.078125 5.875 " clip-rule="nonzero"/></clipPath><mask id="f079ee09cf"><g filter="url(#91e0b79e6d)"><rect x="-33.15" width="397.8" fill="#000000" y="-21.074999" height="252.899993" fill-opacity="0.76"/></g></mask><clipPath id="817b38db61"><path d="M 0.335938 0.453125 L 51.492188 0.453125 L 51.492188 41.25 L 0.335938 41.25 Z M 0.335938 0.453125 " clip-rule="nonzero"/></clipPath><clipPath id="6d8769d3e7"><path d="M 3.332031 0.453125 L 48.367188 0.453125 C 50.019531 0.453125 51.363281 1.792969 51.363281 3.445312 L 51.363281 38.253906 C 51.363281 39.910156 50.019531 41.25 48.367188 41.25 L 3.332031 41.25 C 1.675781 41.25 0.335938 39.910156 0.335938 38.253906 L 0.335938 3.445312 C 0.335938 1.792969 1.675781 0.453125 3.332031 0.453125 Z M 3.332031 0.453125 " clip-rule="nonzero"/></clipPath><clipPath id="4d7a63c3b6"><rect x="0" width="52" y="0" height="42"/></clipPath><mask id="a5b10b6885"><g filter="url(#91e0b79e6d)"><rect x="-33.15" width="397.8" fill="#000000" y="-21.074999" height="252.899993" fill-opacity="0.41"/></g></mask><clipPath id="78a2eaada5"><path d="M 7.335938 7.402344 L 281.675781 7.402344 L 281.675781 36.183594 L 7.335938 36.183594 Z M 7.335938 7.402344 " clip-rule="nonzero"/></clipPath><clipPath id="0a32f0a9eb"><path d="M 10.332031 7.402344 L 278.667969 7.402344 C 279.464844 7.402344 280.226562 7.71875 280.789062 8.277344 C 281.347656 8.839844 281.664062 9.601562 281.664062 10.398438 L 281.664062 33.191406 C 281.664062 33.984375 281.347656 34.746094 280.789062 35.308594 C 280.226562 35.871094 279.464844 36.183594 278.667969 36.183594 L 10.332031 36.183594 C 9.535156 36.183594 8.773438 35.871094 8.214844 35.308594 C 7.652344 34.746094 7.335938 33.984375 7.335938 33.191406 L 7.335938 10.398438 C 7.335938 9.601562 7.652344 8.839844 8.214844 8.277344 C 8.773438 7.71875 9.535156 7.402344 10.332031 7.402344 Z M 10.332031 7.402344 " clip-rule="nonzero"/></clipPath><clipPath id="25a0742786"><path d="M 7.410156 7.402344 L 281.835938 7.402344 L 281.835938 35.796875 L 7.410156 35.796875 Z M 7.410156 7.402344 " clip-rule="nonzero"/></clipPath><clipPath id="707dec4b5a"><path d="M 10.402344 7.402344 L 278.582031 7.402344 C 279.375 7.402344 280.136719 7.71875 280.699219 8.277344 C 281.261719 8.839844 281.574219 9.601562 281.574219 10.394531 L 281.574219 33.175781 C 281.574219 33.96875 281.261719 34.730469 280.699219 35.292969 C 280.136719 35.851562 279.375 36.167969 278.582031 36.167969 L 10.402344 36.167969 C 9.609375 36.167969 8.847656 35.851562 8.285156 35.292969 C 7.726562 34.730469 7.410156 33.96875 7.410156 33.175781 L 7.410156 10.394531 C 7.410156 9.601562 7.726562 8.839844 8.285156 8.277344 C 8.847656 7.71875 9.609375 7.402344 10.402344 7.402344 Z M 10.402344 7.402344 " clip-rule="nonzero"/></clipPath><clipPath id="b6ef7485b9"><rect x="0" width="289" y="0" height="44"/></clipPath><clipPath id="ba1989736b"><path d="M 34.835938 58.035156 L 85.992188 58.035156 L 85.992188 98.832031 L 34.835938 98.832031 Z M 34.835938 58.035156 " clip-rule="nonzero"/></clipPath><clipPath id="7c78836ca3"><path d="M 37.832031 58.035156 L 82.867188 58.035156 C 84.519531 58.035156 85.863281 59.375 85.863281 61.03125 L 85.863281 95.839844 C 85.863281 97.492188 84.519531 98.832031 82.867188 98.832031 L 37.832031 98.832031 C 36.175781 98.832031 34.835938 97.492188 34.835938 95.839844 L 34.835938 61.03125 C 34.835938 59.375 36.175781 58.035156 37.832031 58.035156 Z M 37.832031 58.035156 " clip-rule="nonzero"/></clipPath></defs><g clip-path="url(#672da48ae8)"><g clip-path="url(#7755cc3e59)"><path fill="#5271ff" d="M 4.09375 5.875 L 327.070312 5.875 L 327.070312 204.628906 L 4.09375 204.628906 Z M 4.09375 5.875 " fill-opacity="1" fill-rule="nonzero"/></g></g><g mask="url(#f079ee09cf)"><g transform="matrix(1, 0, 0, 1, 28, 64)"><g clip-path="url(#4d7a63c3b6)"><g clip-path="url(#817b38db61)"><g clip-path="url(#6d8769d3e7)"><path fill="#ffffff" d="M 0.335938 0.453125 L 51.335938 0.453125 L 51.335938 41.25 L 0.335938 41.25 Z M 0.335938 0.453125 " fill-opacity="1" fill-rule="nonzero"/></g></g></g></g></g><g mask="url(#a5b10b6885)"><g transform="matrix(1, 0, 0, 1, 21, 144)"><g clip-path="url(#b6ef7485b9)"><g clip-path="url(#78a2eaada5)"><g clip-path="url(#0a32f0a9eb)"><path fill="#ffffff" d="M 7.335938 7.402344 L 281.675781 7.402344 L 281.675781 36.183594 L 7.335938 36.183594 Z M 7.335938 7.402344 " fill-opacity="1" fill-rule="nonzero"/></g></g><g clip-path="url(#25a0742786)"><g clip-path="url(#707dec4b5a)"><path stroke-linecap="butt" transform="matrix(2.366372, 0, 0, 2.366372, 7.410249, 7.40194)" fill="none" stroke-linejoin="miter" d="M 1.264423 0.000170431 L 114.593888 0.000170431 C 114.928987 0.000170431 115.25088 0.13388 115.488585 0.369935 C 115.726291 0.60764 115.85835 0.929533 115.85835 1.264632 L 115.85835 10.891711 C 115.85835 11.22681 115.726291 11.548703 115.488585 11.786408 C 115.25088 12.022463 114.928987 12.156173 114.593888 12.156173 L 1.264423 12.156173 C 0.929324 12.156173 0.607431 12.022463 0.369725 11.786408 C 0.13367 11.548703 -0.0000391445 11.22681 -0.0000391445 10.891711 L -0.0000391445 1.264632 C -0.0000391445 0.929533 0.13367 0.60764 0.369725 0.369935 C 0.607431 0.13388 0.929324 0.000170431 1.264423 0.000170431 Z M 1.264423 0.000170431 " stroke="#ffffff" stroke-width="1.265854" stroke-opacity="1" stroke-miterlimit="4"/></g></g></g></g></g><g clip-path="url(#ba1989736b)"><g clip-path="url(#7c78836ca3)"><path fill="#ffffff" d="M 34.835938 58.035156 L 85.835938 58.035156 L 85.835938 98.832031 L 34.835938 98.832031 Z M 34.835938 58.035156 " fill-opacity="1" fill-rule="nonzero"/></g></g></svg>