<svg xmlns="http://www.w3.org/2000/svg" xmlns:xlink="http://www.w3.org/1999/xlink" width="442" zoomAndPan="magnify" viewBox="0 0 331.5 210.749994" height="281" preserveAspectRatio="xMidYMid meet" version="1.0"><defs><filter x="0%" y="0%" width="100%" height="100%" id="447cd7fa98"><feColorMatrix values="0 0 0 0 1 0 0 0 0 1 0 0 0 0 1 0 0 0 1 0" color-interpolation-filters="sRGB"/></filter><clipPath id="a9da6dc8a1"><path d="M 4.09375 5.875 L 327 5.875 L 327 204.628906 L 4.09375 204.628906 Z M 4.09375 5.875 " clip-rule="nonzero"/></clipPath><clipPath id="0bee26e725"><path d="M 30.304688 5.875 L 300.695312 5.875 C 315.171875 5.875 326.90625 17.609375 326.90625 32.082031 L 326.90625 178.417969 C 326.90625 192.890625 315.171875 204.628906 300.695312 204.628906 L 30.304688 204.628906 C 15.832031 204.628906 4.09375 192.890625 4.09375 178.417969 L 4.09375 32.082031 C 4.09375 17.609375 15.832031 5.875 30.304688 5.875 Z M 30.304688 5.875 " clip-rule="nonzero"/></clipPath><mask id="69ec4a2852"><g filter="url(#447cd7fa98)"><rect x="-33.15" width="397.8" fill="#000000" y="-21.074999" height="252.899993" fill-opacity="0.76"/></g></mask><clipPath id="341b7f3c2d"><path d="M 0.335938 0.453125 L 51.492188 0.453125 L 51.492188 41.25 L 0.335938 41.25 Z M 0.335938 0.453125 " clip-rule="nonzero"/></clipPath><clipPath id="05eb82a0aa"><path d="M 7.074219 0.453125 L 44.621094 0.453125 C 48.34375 0.453125 51.363281 3.46875 51.363281 7.191406 L 51.363281 34.511719 C 51.363281 38.234375 48.34375 41.25 44.621094 41.25 L 7.074219 41.25 C 3.351562 41.25 0.335938 38.234375 0.335938 34.511719 L 0.335938 7.191406 C 0.335938 3.46875 3.351562 0.453125 7.074219 0.453125 Z M 7.074219 0.453125 " clip-rule="nonzero"/></clipPath><clipPath id="1681e971c0"><rect x="0" width="52" y="0" height="42"/></clipPath><mask id="fdadd460eb"><g filter="url(#447cd7fa98)"><rect x="-33.15" width="397.8" fill="#000000" y="-21.074999" height="252.899993" fill-opacity="0.41"/></g></mask><clipPath id="325ec12c32"><path d="M 0.335938 0.402344 L 274.675781 0.402344 L 274.675781 29.183594 L 0.335938 29.183594 Z M 0.335938 0.402344 " clip-rule="nonzero"/></clipPath><clipPath id="7e45b36206"><path d="M 7.074219 0.402344 L 267.925781 0.402344 C 269.710938 0.402344 271.425781 1.113281 272.691406 2.375 C 273.953125 3.640625 274.664062 5.355469 274.664062 7.140625 L 274.664062 22.445312 C 274.664062 24.234375 273.953125 25.949219 272.691406 27.210938 C 271.425781 28.476562 269.710938 29.183594 267.925781 29.183594 L 7.074219 29.183594 C 5.289062 29.183594 3.574219 28.476562 2.308594 27.210938 C 1.046875 25.949219 0.335938 24.234375 0.335938 22.445312 L 0.335938 7.140625 C 0.335938 5.355469 1.046875 3.640625 2.308594 2.375 C 3.574219 1.113281 5.289062 0.402344 7.074219 0.402344 Z M 7.074219 0.402344 " clip-rule="nonzero"/></clipPath><clipPath id="14b40c5274"><rect x="0" width="275" y="0" height="30"/></clipPath></defs><g clip-path="url(#a9da6dc8a1)"><g clip-path="url(#0bee26e725)"><path fill="#006fee" d="M 4.09375 5.875 L 327.070312 5.875 L 327.070312 204.628906 L 4.09375 204.628906 Z M 4.09375 5.875 " fill-opacity="1" fill-rule="nonzero"/></g></g><g mask="url(#69ec4a2852)"><g transform="matrix(1, 0, 0, 1, 28, 64)"><g clip-path="url(#1681e971c0)"><g clip-path="url(#341b7f3c2d)"><g clip-path="url(#05eb82a0aa)"><path fill="#ffffff" d="M 0.335938 0.453125 L 51.335938 0.453125 L 51.335938 41.25 L 0.335938 41.25 Z M 0.335938 0.453125 " fill-opacity="1" fill-rule="nonzero"/></g></g></g></g></g><g mask="url(#fdadd460eb)"><g transform="matrix(1, 0, 0, 1, 28, 151)"><g clip-path="url(#14b40c5274)"><g clip-path="url(#325ec12c32)"><g clip-path="url(#7e45b36206)"><path fill="#ffffff" d="M 0.335938 0.402344 L 274.675781 0.402344 L 274.675781 29.183594 L 0.335938 29.183594 Z M 0.335938 0.402344 " fill-opacity="1" fill-rule="nonzero"/></g></g></g></g></g></svg>