<svg xmlns="http://www.w3.org/2000/svg" xmlns:xlink="http://www.w3.org/1999/xlink" width="500" zoomAndPan="magnify" viewBox="0 0 375 374.999991" height="500" preserveAspectRatio="xMidYMid meet" version="1.0"><defs><filter x="0%" y="0%" width="100%" height="100%" id="12fdc4c25e"><feColorMatrix values="0 0 0 0 1 0 0 0 0 1 0 0 0 0 1 0 0 0 1 0" color-interpolation-filters="sRGB"/></filter><clipPath id="8b74c739ce"><path d="M 45.347656 97.839844 L 336.738281 97.839844 L 336.738281 277.160156 L 45.347656 277.160156 Z M 45.347656 97.839844 " clip-rule="nonzero"/></clipPath><clipPath id="59835d9cf2"><path d="M 54.347656 97.839844 L 327.589844 97.839844 C 332.558594 97.839844 336.589844 101.871094 336.589844 106.839844 L 336.589844 268.160156 C 336.589844 273.128906 332.558594 277.160156 327.589844 277.160156 L 54.347656 277.160156 C 49.378906 277.160156 45.347656 273.128906 45.347656 268.160156 L 45.347656 106.839844 C 45.347656 101.871094 49.378906 97.839844 54.347656 97.839844 Z M 54.347656 97.839844 " clip-rule="nonzero"/></clipPath><mask id="13385f506c"><g filter="url(#12fdc4c25e)"><rect x="-37.5" width="450" fill="#000000" y="-37.499999" height="449.999989" fill-opacity="0.76"/></g></mask><clipPath id="934d0a0501"><path d="M 0.21875 0.691406 L 46.371094 0.691406 L 46.371094 37.5 L 0.21875 37.5 Z M 0.21875 0.691406 " clip-rule="nonzero"/></clipPath><clipPath id="43698520c3"><path d="M 3.21875 0.691406 L 43.253906 0.691406 C 44.910156 0.691406 46.253906 2.035156 46.253906 3.691406 L 46.253906 34.5 C 46.253906 36.15625 44.910156 37.5 43.253906 37.5 L 3.21875 37.5 C 1.5625 37.5 0.21875 36.15625 0.21875 34.5 L 0.21875 3.691406 C 0.21875 2.035156 1.5625 0.691406 3.21875 0.691406 Z M 3.21875 0.691406 " clip-rule="nonzero"/></clipPath><clipPath id="d356109e2c"><rect x="0" width="47" y="0" height="38"/></clipPath><mask id="11a36c2743"><g filter="url(#12fdc4c25e)"><rect x="-37.5" width="450" fill="#000000" y="-37.499999" height="449.999989" fill-opacity="0.41"/></g></mask><clipPath id="d1a8e4ca64"><path d="M 0.21875 1.136719 L 247.730469 1.136719 L 247.730469 27.105469 L 0.21875 27.105469 Z M 0.21875 1.136719 " clip-rule="nonzero"/></clipPath><clipPath id="725852ae81"><path d="M 3.21875 1.136719 L 244.71875 1.136719 C 245.515625 1.136719 246.277344 1.453125 246.839844 2.015625 C 247.402344 2.578125 247.71875 3.34375 247.71875 4.136719 L 247.71875 24.105469 C 247.71875 24.902344 247.402344 25.664062 246.839844 26.226562 C 246.277344 26.789062 245.515625 27.105469 244.71875 27.105469 L 3.21875 27.105469 C 2.421875 27.105469 1.660156 26.789062 1.097656 26.226562 C 0.535156 25.664062 0.21875 24.902344 0.21875 24.105469 L 0.21875 4.136719 C 0.21875 3.34375 0.535156 2.578125 1.097656 2.015625 C 1.660156 1.453125 2.421875 1.136719 3.21875 1.136719 Z M 3.21875 1.136719 " clip-rule="nonzero"/></clipPath><clipPath id="50be86c344"><rect x="0" width="248" y="0" height="28"/></clipPath></defs><g clip-path="url(#8b74c739ce)"><g clip-path="url(#59835d9cf2)"><path fill="#006fee" d="M 45.347656 97.839844 L 336.738281 97.839844 L 336.738281 277.160156 L 45.347656 277.160156 Z M 45.347656 97.839844 " fill-opacity="1" fill-rule="nonzero"/></g></g><g mask="url(#13385f506c)"><g transform="matrix(1, 0, 0, 1, 67, 150)"><g clip-path="url(#d356109e2c)"><g clip-path="url(#934d0a0501)"><g clip-path="url(#43698520c3)"><path fill="#ffffff" d="M 0.21875 0.691406 L 46.230469 0.691406 L 46.230469 37.5 L 0.21875 37.5 Z M 0.21875 0.691406 " fill-opacity="1" fill-rule="nonzero"/></g></g></g></g></g><g mask="url(#11a36c2743)"><g transform="matrix(1, 0, 0, 1, 67, 228)"><g clip-path="url(#50be86c344)"><g clip-path="url(#d1a8e4ca64)"><g clip-path="url(#725852ae81)"><path fill="#ffffff" d="M 0.21875 1.136719 L 247.730469 1.136719 L 247.730469 27.105469 L 0.21875 27.105469 Z M 0.21875 1.136719 " fill-opacity="1" fill-rule="nonzero"/></g></g></g></g></g></svg>